<?xml version="1.0" standalone="no"?><!DOCTYPE svg PUBLIC "-//W3C//DTD SVG 1.1//EN" "http://www.w3.org/Graphics/SVG/1.1/DTD/svg11.dtd"><svg t="1742363197706" class="icon" viewBox="0 0 1024 1024" version="1.1" xmlns="http://www.w3.org/2000/svg" p-id="3072" xmlns:xlink="http://www.w3.org/1999/xlink" width="200" height="200"><path d="M527.92 515.15m-389.4 0a389.4 389.4 0 1 0 778.8 0 389.4 389.4 0 1 0-778.8 0Z" fill="#ffffff" p-id="3073" data-spm-anchor-id="a313x.search_index.0.i6.21843a81cvsc1T" class=""></path><path d="M512.28 934.15a418.65 418.65 0 0 1-419-419c0-3.2 0-6.44 0.11-9.64a8.29 8.29 0 1 1 16.58 0.37c-0.07 3.07-0.1 6.19-0.1 9.27 0 221.89 180.52 402.41 402.41 402.41S914.69 737 914.69 515.15a401.63 401.63 0 0 0-21.9-131.3 8.29 8.29 0 1 1 15.68-5.41 418.87 418.87 0 0 1-396.18 555.7zM251.89 205.83a8.29 8.29 0 0 1-5.27-14.7 419.14 419.14 0 0 1 499.63-23.61 8.29 8.29 0 0 1-9.25 13.75 402.55 402.55 0 0 0-479.83 22.68 8.26 8.26 0 0 1-5.28 1.88z" fill="#d81e06" p-id="3074" data-spm-anchor-id="a313x.search_index.0.i5.21843a81cvsc1T" class="selected"></path><path d="M411.89 773.14c43.76 33.64 105.84 72.27 162.52 75.07 41.19 2 80.85-20.28 112.29-44.35 28.51-21.86 58.57-51.33 69.36-86.86 10.43-34.37-10.16-66.68-3.15-100.87 3.12-15.18 25.31-87.51 30.79-117s-75.28-97-75.28-97L343.2 479l-87.89 160.19 59 106.67 33.55 24.81s28.25 12.52 43 11c10.32-1.09 21.03-8.53 21.03-8.53z" fill="#F3BAA0" p-id="3075"></path><path d="M410 772c43.76 33.64 105.84 72.27 162.52 75.07 41.19 2 80.85-20.28 112.29-44.35 28.52-21.85 58.58-51.33 69.37-86.89C764.61 681.48 744 649.17 751 615c3.12-15.18 25.31-87.51 30.79-117s-75.28-97-75.28-97l-365.18 76.84-87.89 160.22 59 106.67L346 769.54s28.25 12.52 43 11c10.31-1.09 21-8.54 21-8.54z" fill="#F3BAA0" p-id="3076"></path><path d="M588.56 872.28q-3 0-6-0.15c-47.4-2.41-104.06-28.83-168.47-78.54L399.48 804a4.75 4.75 0 0 1-3.41 0.83l-31.4-4.4a4.76 4.76 0 0 1-2-0.8l-48-33.32a4.75 4.75 0 0 1-1.46-1.63L251.78 652.4a4.75 4.75 0 0 1 0-4.54l91.07-168.48A4.75 4.75 0 0 1 346 477l379-80.64a4.75 4.75 0 0 1 3.79 0.81 552 552 0 0 1 44.61 36.94c30.53 28.42 44.05 49.42 41.36 64.2-2.66 14.58-7.27 35.6-16.69 50.73-3.45 12.94-7.22 26.57-10.56 38.61-5 18-9.28 33.48-10.5 39.54-3.24 16.05-0.46 31.66 2.48 48.17 3.34 18.76 6.8 38.16 0.76 58.37-11.38 38.12-48 66.55-77.48 89.39l-1.79 1.39c-41.87 32.49-77.78 47.77-112.42 47.77z m-174.31-89.36a4.75 4.75 0 0 1 2.92 1c63.09 49.18 120.46 76.4 165.9 78.71 34.11 1.74 69.7-12.77 112.05-45.63l1.79-1.39c28.38-22 63.69-49.41 74.2-84.6 5.39-18 2.28-35.5-1-54-3-16.66-6-33.89-2.44-51.72 1.29-6.39 5.42-21.31 10.66-40.2 3.39-12.24 7.24-26.11 10.72-39.21a4.74 4.74 0 0 1 0.59-1.34c9.81-15.36 14.29-39.89 15.76-48 3.67-20.13-46.72-65.6-80.51-90.51l-374.73 79.8-88.8 164.28 59.57 109 46.18 32 28.41 4 16-11.34a4.74 4.74 0 0 1 2.73-0.85z" fill="" p-id="3077"></path><path d="M413.68 807.06c-8.44 9.7-18.52 16.47-31 19.47a97.71 97.71 0 0 1-43.67 0.5c-19.09-4.19-41.41-15.12-52.34-32 1.93 0.39 25.77 1.33 25.48 0.51-3-8.59-10.59-11.28-17.75-15.6q-12-7.25-23.62-15.2c-17.27-11.85-34.25-24.65-49.35-39.19-3.24-3.12-24.67-23.93-10.33-24.68 3.58-0.2 7.36 0.67 10.82 1.44 9.64 2.13 20.89 2 30.5 0.54-19.18-22.18-42-39.58-58.92-64.44a292.32 292.32 0 0 1-37.65-77.75c-0.56-1.8-1.08-3.83-0.16-5.48 4.55-8.17 24.7 15.24 27.21 18.13 1.14 1.31 25.5 24.85 26.48 19.56 2.19-12.28-14.58-23.95-21.41-32.51a215.18 215.18 0 0 1-46.47-125.43c-0.19-5.34 0-11.28 3.77-15.1 9.15 7 12.53 16.73 18.66 26 5.14 7.74 22.5 40.67 34.41 37.83 9.36-2.24-19.71-72.22-22.44-80.53-10.42-31.83-15.47-66-10.86-99.28 3.87 4.19 27 48.75 29.3 46.76 4.75-4-12-56.6-7.26-81.79 2.78-14.71 14 8.23 16.2 12.4a80.83 80.83 0 0 0 64.62 42.91c3.77 0.33 29 1.85 22.91-6.23-2.59-3.44-10.55-5.9-14.29-8-10.32-5.77-21.83-12.12-28.54-22.22-6.14-9.25 18-0.58 20.95 0.09 16.37 3.68 31 5.67 46.53-2.35 10.41-5.38 19.59-12.9 30-18.31 17.08-8.89 36.67-11.45 55.7-9.9a153.74 153.74 0 0 1 29.4 5.46c4.49 1.27 8.5 3.19 12.72 4.83 1.26 0.49 11.61 3.55 12.52 2.67s-26.47-19.07-39.55-23.48c-21.71-7.33-49-16.18-72-16.92a2.84 2.84 0 0 1-1.78-0.47c4.7-5.11 14.27-7.59 20.74-9.52a193.51 193.51 0 0 1 36-6.57c25.71-2.56 51.78 1.08 76.57 8 7.17 2 14.09 4.83 21.4 6.37 9 1.9 19.84 0.7 7.86-8.91-14.81-11.88-33-18.28-51.26-22.6-8.92-2.1-18.58-2.69-27.32-5.32-10.25-3.09-7.33-7.41 1.43-9.65 14.86-3.81 31.37-2.22 46.61-1.61a340.48 340.48 0 0 1 62.15 8.08c18.77 4.35 37.15 11.61 52.3 23.51 9.09 7.14 16.8 15.78 25 23.87a97.3 97.3 0 0 0 13.23 11.25c1.44 1 5.31 4.24 7.3 3.6 5-1.6-0.64-9.63-2.55-12.22-20.91-28.22-48.26-46.52-78-64.14 28.06 4.78 56.71 10.16 81.32 24.47A124.56 124.56 0 0 1 674 233.24c4.46 6.27 7.67 16.5 14.24 20.83 7.33 4.83 9.26-1.8 6.73-8.2a233.37 233.37 0 0 0-17-34.35c-1.86-3.09-6.19-8.59-3.85-12.42 2.82-4.63 11.58-1.65 15.31 0.08 18.2 8.43 32.72 27.79 43.87 43.94A206.36 206.36 0 0 1 761.47 302c2.69 9.17 4.07 19.41 8.09 28.08 5.44-1.29 5.78-10.6 5.94-15.45 0.79-24.13 0.34-49.21-10-71a4.41 4.41 0 0 1-0.51-2.43c8.19-2.66 20.63 13 24.82 18.73 8.33 11.35 13.46 24.9 16.52 38.55 4.57 20.36 0.22 44.79 9.06 63.93 7.24-3.35 7.8-16.81 8.32-23.87 0-11.49 1.71-23.24 2.56-34.71 0.76-10.34 0-22.45 3-32.36-1.22 4 8.35 19.55 9.78 24a156.22 156.22 0 0 1 0.7 93.5c-3.09 9.93-10.94 22.38-3.9 31.75 5.66 7.53 15.53 10.77 22.31 17.05 9.14 8.47 15.12 13.68 20.81 24.76 4.43 8.62 8.57 22.53 3.57 42.27-6.35 25-16.62 36.15-25.35 46.31 2.63-12.45 12.17-38.58 4.21-54.73-6-12.1-20.2-25.2-16.1-13 4 12 5.22 25 5.4 37.7 0.24 16.58-15.38 34.94-31.93 35.61-8.2 0.33 16.49-14.91 17.9-31 1.1-12.53-6.49-29.39-20.44-35.71 0.5 4.85 11.66 7.8 6.84 27.89-4.74 19.77-26.64 36.7-41.56 45.9-7.93 4.87-4.19-7.05-2.64-9.75 3.27-5.74 8.55-10.11 12.06-15.7 5.1-8.15 6.35-18.31 4.84-27.81s-5.6-18.41-10.5-26.68c-5.8-9.79-14-19.59-25.23-21.25 4.23 0.62 6.69 16.67 6.89 19.88 0.39 6.24-0.14 13.8-6.43 17.06-4.82-6.62-5.89-16.87-9.71-24.39-4.16-8.19-10.08-14.91-18.26-19.27-2.42-1.29-5.38-2.34-7.83-1.11-2.91 1.46-3.55 5.27-3.74 8.52-0.4 6.86-0.13 13.65 0.08 20.5 0 0.9-0.54 13.18-1.13 12.57-10-10.32-10.66-26.07-25-34.25-2.58-1.47-6-2.52-8.37-0.71s-2.2 5.59-1.71 8.64c1.91 11.8 6.32 25.38 4.46 37.3-8-4.78-21.66-39.43-29.7-36.94-1.89 0.58-2.94 2.57-3.53 4.46-2.58 8.32 0.14 17.23 2.47 25.61s4.21 17.75 0.21 25.48c-12-11.52-12.56-30.29-24.31-42.16-0.78-0.79-2.1-1.55-2.87-0.75a2.15 2.15 0 0 0-0.35 1.7c0.4 4.92 1.26 9.8 1.49 14.72 0.89 19.48-9.47 42-25.38 53.62-8.5 6.19-10.49-2.16-11.85-9.36-2.15-11.42-3.25-22.69-8.38-33.33-4.89-10.14-13.17-19.12-23.9-22.51a14.69 14.69 0 0 0-7.47-0.7 7.17 7.17 0 0 0-5.49 4.7 9.94 9.94 0 0 0 0.35 5.26c3.34 12.24 15.24 25.16 14.56 38.22-0.77 14.55-11.39-0.63-16.33-5.06q-13.52-12.13-28-23.11a10.63 10.63 0 0 0-4-2.21 3.69 3.69 0 0 0-4 1.53 5 5 0 0 0-0.27 3c0.7 5.18 2.61 10.12 3.73 15.22a50.28 50.28 0 0 1 0.81 16.56 14.77 14.77 0 0 1-2.42 7.3c-10.44 13.79-15.86-22.48-17.7-26.95a23.29 23.29 0 0 0-6.63-9.46 12.27 12.27 0 0 0-19.75 4.7 23 23 0 0 0-1.56 11.87c1.54 15-12 6.34-16.7-1-2.77-4.34-4.85-9.84-9.69-11.57a9.93 9.93 0 0 0-10.29 2.86c-2.63 2.84-3.22 6.67-3.94 10.25-8.16-4.92-15.41-14-24.52-17.54-20.6-8.09-29.12 12-31.52 28.52-7.28 49.92-8.27 101.17 6.91 149.79 2.87 9.18 6 18.28 9.16 27.35 2.49 7.1 6.55 15.93 4.46 23.67-1 3.71-6.2-6.89-6.57-7.63-5-10-9.2-20.46-13.71-30.71-5.55-12.6-11.2-25.18-17.54-37.41-6.02-11.17-13.07-27.95-25.07-33.8-5.15-2.53-11.13-2.77-16.85-2.32-10.42 0.82-19.64 4.79-24.07 14.91-3.29 7.53-3.33 16.07-2.58 24.26 2.46 27 13.31 52.69 29.55 74.26 15.91 21.13 38.09 42.29 62.41 53.2 4.4 2 9 3.61 13.84 3.83a20.71 20.71 0 0 0 11.54-3c3.26-1.83 6.4-5.8 10.61-4.17 6.93 2.64 4.37 8.67-0.77 14.58z" fill="#D4CDF9" p-id="3078"></path><path d="M413.72 807.08c-9.31 11.65-24.11 18.26-38.94 20.77-32.32 5.47-67.1-7.26-88.26-32.3h25.61c-3.87-8.33-12.52-13.16-20.49-17.75-25.67-14.79-55-47.15-76.36-67.63 9.42 3.34 22 7.74 32.72 9.51 7.95 1.31 20.3 3.87 26.31-5.15 4.41-9.72-0.16-20.74-5.89-25.3-37.5-29.82-71.23-67.45-94.64-110.09-1-1.75-0.59-3.43-1-5.39s0.31-4.28 2.11-5.16c4.07-2 16.53 12.89 20 15.87 1 0.87 13.89 11.72 14.48 8.41 2.19-12.28-14.58-23.95-21.41-32.51a215.18 215.18 0 0 1-46.46-125.43c-0.19-5.34 0-11.28 3.77-15.1 9.15 7 12.53 16.73 18.66 26 5.14 7.74 26.51 46.23 38.41 43.39 35-8.36-0.8-72.87-7.83-90.87a231.87 231.87 0 0 1-15.43-69.8c3.43 5.84 6.74 12.35 11 17.64 3.3 4.12 4.29 4.86 5.12-0.15 1.08-6.56-2.15-15.61-3.32-22-3.19-17.59-8.16-37.3-4.78-55.19 2.78-14.71 8.37 19.2 10 23.64 6 16.37 17 29.56 31.15 37.14 9.6 5.12 29.26 8.62 40.13 8.25 25.61-0.88 28.55-11.86 22.45-19.95-2.59-3.44-10.55-5.9-14.29-8-10.32-5.77-8.83-13.19-5.87-12.53 18.87 4.23 38.07 9 57.25 3.85 8.73-2.36 15.32-8.25 22.91-13A127.88 127.88 0 0 1 377 275c14.27-4.92 29.6-6.11 44.56-4.65a146.36 146.36 0 0 1 22.34 4.08c6.43 1.66 7.19 0.18 11.85-4.35 0.91-0.88-26.47-19.07-39.55-23.48-21.71-7.33-49-16.18-72-16.92a2.84 2.84 0 0 1-1.78-0.47c4.7-5.11 14.27-7.59 20.74-9.52a193.51 193.51 0 0 1 36-6.57c25.71-2.56 51.78 1.08 76.57 8 7.17 2 14.09 4.83 21.4 6.37 9 1.9 19.84 0.7 7.86-8.91-23-18.46-54.93-24.48-83.4-28.73 19.23-6 40-2.25 59.68 2.23 38.87 8.87 78.76 21.22 107.57 48.78 12.36 11.82 43.06 46.48 61.42 24.9 14.66-17.23-10.3-35.75-21.83-45.44-26.89-22.59-44.78-29.35-74.56-47 28.06 4.78 56.71 10.16 81.32 24.47A124.56 124.56 0 0 1 674 233.24c4.46 6.27 7.67 16.5 14.24 20.83 7.33 4.83 9.26-1.8 6.73-8.2-5.82-14.73-13.61-28.22-21.24-42.1a4 4 0 0 1 0.82-5c2.05-1.7 4.3-0.11 5.93 1.4a179.33 179.33 0 0 1 29.92 36.29c18.78 30.62 30.89 58.61 40.39 98.21a27.35 27.35 0 0 0 5.21 10.9c9.5 11.26 26.12-0.58 29.94-11.52 2.86-8.18 2.58-16.94 1.92-25.44-1.94-24.82-12-43.14-22.41-64.95a4.41 4.41 0 0 1-0.51-2.43c8.19-2.66 20.63 13 24.82 18.73 8.33 11.35 13.46 24.9 16.52 38.55 4.57 20.36 0.22 44.79 9.06 63.93 7.24-3.35 7.8-16.81 8.32-23.87 2.17-11.57 1.71-23.24 2.56-34.71 0.6-8.18 0.22-17.48 1.53-25.91a1.44 1.44 0 0 1 2.75-0.31c2.49 6.22 7.13 15.62 8.13 18.73 3.24 10 5.78 19.54 6.93 30A154.75 154.75 0 0 1 839.7 389c-3.09 9.93-10.94 22.38-3.9 31.75 5.66 7.53 15.53 10.77 22.31 17.05 9.14 8.47 15.12 13.68 20.81 24.76 4.43 8.62 8.57 22.53 3.57 42.27-6.35 25-16.62 36.15-25.35 46.31 2.63-12.45 12.17-38.58 4.21-54.73-6-12.1-20.2-25.2-16.1-13 4 12 6.52 25.07 5.4 37.7-1.52 17.13-15.38 34.94-31.93 35.61-8.2 0.33 16.49-14.91 17.9-31 1.1-12.53-6.49-29.39-20.44-35.71 0.5 4.85 11.66 7.8 6.84 27.89-4.74 19.77-26.64 36.7-41.56 45.9-7.93 4.87-4.19-7.05-2.64-9.75 3.27-5.74 8.55-10.11 12.06-15.7 5.1-8.15 6.35-18.31 4.84-27.81s-5.6-18.41-10.5-26.68c-5.8-9.79-14-19.59-25.23-21.25 4.23 0.62 6.69 16.67 6.89 19.88 0.39 6.24-0.14 13.8-6.43 17.06-4.82-6.62-5.89-16.87-9.71-24.39-4.5-8.85-11-16-20.26-20.27a7.25 7.25 0 0 0-3.92-0.67c-4.56 0.56-5.43 5.21-5.65 9.07-0.4 6.86-0.13 13.65 0.08 20.5 0 0.9-0.54 13.18-1.13 12.57-10.53-10.83-10.7-27.62-27.25-35.39a6.25 6.25 0 0 0-4.91-0.27c-3.78 1.48-3.53 5.84-3 9.34 1.91 11.8 6.32 25.38 4.46 37.3-8-4.78-21.66-39.43-29.7-36.94-1.89 0.58-2.94 2.57-3.53 4.46-2.58 8.32 0.14 17.23 2.47 25.61s4.21 17.75 0.21 25.48c-12-11.52-12.56-30.29-24.31-42.16-0.78-0.79-2.1-1.55-2.87-0.75a2.15 2.15 0 0 0-0.35 1.7c0.4 4.92 1.26 9.8 1.49 14.72 0.89 19.48-9.47 42-25.38 53.62-8.5 6.19-10.49-2.16-11.85-9.36-2.15-11.42-3.25-22.69-8.38-33.33-4.89-10.14-13.17-19.12-23.9-22.51a14.69 14.69 0 0 0-7.47-0.7 7.17 7.17 0 0 0-5.49 4.7 9.94 9.94 0 0 0 0.35 5.26c3.34 12.24 15.24 25.16 14.56 38.22-0.77 14.55-11.39-0.63-16.33-5.06q-13.52-12.13-28-23.11a10.63 10.63 0 0 0-4-2.21 3.69 3.69 0 0 0-4 1.53 5 5 0 0 0-0.27 3c0.7 5.18 2.61 10.12 3.73 15.22a50.23 50.23 0 0 1 0.51 18.69 11.84 11.84 0 0 1-2.38 5.51c-10.27 12.84-15.61-22.85-17.44-27.29a23.29 23.29 0 0 0-6.63-9.46 12.27 12.27 0 0 0-19.75 4.7 23 23 0 0 0-1.56 11.87c1.54 15-12 6.34-16.7-1-2.88-4.51-5-10.29-10.3-11.77a9.45 9.45 0 0 0-7.54 1.29c-4.51 2.85-5.2 7.63-6.07 12-8.16-4.92-15.41-14-24.52-17.54-20.6-8.09-29.12 12-31.52 28.52-7.28 49.92-8.27 101.17 6.91 149.79 2.87 9.18 6 18.28 9.16 27.35 2.49 7.1 6.55 15.93 4.46 23.67-1 3.71-6.2-6.89-6.57-7.63-5-10-9.2-20.46-13.71-30.71-5.55-12.6-11.2-25.18-17.54-37.41-5.9-11.17-12.95-27.95-24.95-33.8-5.15-2.53-11.13-2.77-16.85-2.32-10.42 0.82-19.64 4.79-24.07 14.91-3.29 7.53-3.33 16.07-2.58 24.26 4.85 53.25 42.28 101.23 88.76 125.77 8.09 4.27 18 7.9 26.11 3.72 3.5-1.8 6.27-4.9 10.41-5.53a5.94 5.94 0 0 1 4.65 1.1c3.33 2.69 1.68 7.33-0.47 10.56q-1.04 1.6-2.24 3.1z" fill="" p-id="3079"></path><path d="M462.5 188.38l4.83 0.23c2.3 0.11 4.58 0.22 6.84 0.32a331.38 331.38 0 0 1 60.39 7.84c19.7 4.57 36 11.88 48.58 21.73 6.16 4.84 11.68 10.47 17.53 16.43 3.79 3.87 7.71 7.86 11.86 11.66a88 88 0 0 0 9.4 7.41l0.59 0.43c3.36 2.47 7 4.89 11.48 4.89a11.33 11.33 0 0 0 3.48-0.54 12.14 12.14 0 0 0 8-7.85c1.71-5.34-0.13-11.4-5.81-19.07a198.86 198.86 0 0 0-38-38.24 141.41 141.41 0 0 1 28.85 12.45 115.43 115.43 0 0 1 35.72 32.68 61.49 61.49 0 0 1 3.65 6.33C673 251 676.61 257.8 683 262a17.48 17.48 0 0 0 9.59 3.23 12.42 12.42 0 0 0 10.41-5.49c3-4.46 3.32-10.95 0.78-17.37a243.56 243.56 0 0 0-16.39-33.61c14.57 7.59 26.91 23.55 38.1 39.76a196.11 196.11 0 0 1 26.87 56.2c0.85 2.89 1.57 5.95 2.33 9.18 1.58 6.7 3.21 13.64 6.26 20.22a9.5 9.5 0 0 0 10.82 5.25c12.54-3 13-18 13.24-24.38 0.5-15.38 0.62-32.29-2.52-48.92 6.56 9.11 11.46 20.72 14.55 34.52 1.71 7.62 2.38 19.85 3 30.65 1.37 25 2.19 40.1 14.92 40.69h0.44a9.51 9.51 0 0 0 2.48-0.33c8.62-2.32 13.13-12 15.58-33.56 0.76-6.7 1.19-13.45 1.4-19.28 0.54 2.8 1 5.7 1.32 8.67a145.91 145.91 0 0 1-5.52 58.74c-0.56 1.82-1.38 3.89-2.24 6.08-3.75 9.54-8.89 22.61-0.18 34.2 4.36 5.8 10.17 9.41 15.3 12.59a54.72 54.72 0 0 1 8.15 5.72l1.41 1.3c8 7.37 12.78 11.82 17.41 20.83 5.26 10.23 6.2 22.2 2.81 35.59l-0.07 0.28a38.36 38.36 0 0 0-3.33-10.57 66.51 66.51 0 0 0-9.83-14.33c-5.49-6.11-9.95-8.83-14.47-8.83a10.34 10.34 0 0 0-8.5 4.32c-3.57 5-1.59 10.87-0.84 13.1a113.79 113.79 0 0 1 3.8 14.07c-4.42-8-11.15-15.12-19.93-19.1a9.5 9.5 0 0 0-10.73 15.29c0.64 0.66 1.28 1.24 1.89 1.8 1.72 1.57 2.64 2.46 3.19 4.05 0.67 1.93 1.09 5.79-0.68 13.19-1.55 6.46-5.51 12.65-10.42 18.21a52.94 52.94 0 0 0 1.74-24.86c-1.5-9.45-5.33-19.27-11.7-30-9.21-15.55-19.69-24-32-25.81a9.49 9.49 0 0 0-10.14 5.7 50 50 0 0 0-16.75-12.63 17 17 0 0 0-7.15-1.61 16.05 16.05 0 0 0-1.94 0.12c-3.92 0.48-13.13 3.19-14 18q0 0.75-0.08 1.5a39.15 39.15 0 0 0-14.7-11.86 16.33 16.33 0 0 0-6.89-1.56 15.07 15.07 0 0 0-5.53 1c-4.08 1.6-10.53 6.09-9.07 18.29-4.44-5.73-9-9.37-14.8-9.37a12.38 12.38 0 0 0-3.66 0.55c-2.67 0.83-7.5 3.32-9.8 10.73a34 34 0 0 0-1.48 10.15 44.35 44.35 0 0 0-4.31-5.08 12.61 12.61 0 0 0-8.81-3.91 10.54 10.54 0 0 0-7.65 3.24 11.25 11.25 0 0 0-3 9.08c0.18 2.24 0.45 4.42 0.7 6.52 0.33 2.75 0.65 5.35 0.76 7.86 0.68 15.07-7 32.72-18.23 42.87l-0.15-0.8c-0.41-2.17-0.79-4.4-1.15-6.56-1.62-9.53-3.3-19.39-8-29.15-6.61-13.56-17.37-23.57-29.61-27.44a26.74 26.74 0 0 0-8.11-1.37 20 20 0 0 0-4.25 0.45 16.5 16.5 0 0 0-12.64 11.4 19 19 0 0 0 0.32 10.34c1.6 5.85 4.55 11.37 7.42 16.71l1.3 2.44a448.536 448.536 0 0 0-23.59-19.17 19.44 19.44 0 0 0-7.79-3.93 13.91 13.91 0 0 0-2.9-0.31 12.89 12.89 0 0 0-11.52 6.68 14.21 14.21 0 0 0-1.29 8.75c0.13 1 0.29 1.88 0.47 2.79a30.06 30.06 0 0 0-7.32-8.8 23.41 23.41 0 0 0-14.51-5.26 20.44 20.44 0 0 0-4.36 0.47 22.71 22.71 0 0 0-15.46 13 28.5 28.5 0 0 0-2.34 8.45l-0.75-1.31c-2.52-4.41-6.32-11.06-14.26-13.29a17.87 17.87 0 0 0-4.82-0.66 19.41 19.41 0 0 0-10.36 3.06 20 20 0 0 0-5.27 4.78c-4.8-4.07-10.23-8.55-16.77-11.12a33.79 33.79 0 0 0-12.32-2.5c-16.57 0-28.56 14.39-32.08 38.5-6.58 45.13-7 83.71-1.16 118.69l-0.55-1.1C355 644.51 347.5 629.48 334.22 623a37.17 37.17 0 0 0-16.68-3.47c-1.62 0-3.29 0.07-5.1 0.21-19.71 1.55-28.3 12-32 20.58-4.38 10-4.09 20.73-3.34 28.93 2.53 27.82 13.4 55.18 31.43 79.11 11.26 15 34.82 42.13 66.12 56.15 4.47 2 10.48 4.34 17.3 4.65h1.35a28.45 28.45 0 0 0 4.95-0.42 46.24 46.24 0 0 1-17.71 8.55 88.7 88.7 0 0 1-20.77 2.47 87.09 87.09 0 0 1-18.63-2 95.58 95.58 0 0 1-30.17-12.43c3.59-0.18 6.68-0.95 9-4.25a9.59 9.59 0 0 0 1.2-8.7c-3.7-10.43-11.75-14.91-18.21-18.51-1.26-0.7-2.44-1.36-3.59-2.05-7.82-4.72-15.61-9.73-23.15-14.9-20.07-13.77-35.37-25.91-48.13-38.2-2.61-2.51-4.77-4.79-6.52-6.77a86.27 86.27 0 0 0 16.43 1.46 107.94 107.94 0 0 0 15.82-1.17 9.5 9.5 0 0 0 5.79-15.62c-7.67-8.87-15.9-17-23.86-24.86-12.62-12.47-24.54-24.24-34.41-38.72a283.27 283.27 0 0 1-31-59.44c1.6 1.68 3.36 3.61 5.26 5.81l0.1 0.12c1 1.17 6.78 6.72 12.32 11.55 11.64 10.14 16.14 12.06 20.38 12.06a10.34 10.34 0 0 0 10.31-8.56v-0.05c2.49-14-8.93-25.38-17.26-33.68a88.09 88.09 0 0 1-6.07-6.42 203.58 203.58 0 0 1-23.17-36.5 206.51 206.51 0 0 1-20.72-74.27c1.37 2.41 2.81 4.88 4.48 7.39 0.69 1 1.76 2.81 3 4.87 11.89 19.7 23.73 37.38 37.83 37.38a16 16 0 0 0 3.7-0.43A11.34 11.34 0 0 0 208 487c4-7.61 2.08-21.19-19.67-77.83-1.61-4.18-3-7.79-3.4-9-7.29-22.26-11.3-43.78-12-64.3 12.27 21.34 14.88 24.31 21.23 24.31a9.79 9.79 0 0 0 6.32-2.31c6.26-5.29 4.77-13.48 0.77-35.38-1.91-10.46-4.27-23.36-5.16-34.61a90.31 90.31 0 0 0 71 45.72c0.43 0 4.3 0.37 9.23 0.37 9.62 0 20-1 23.75-8.62 1-2 2.81-7.25-1.65-13.17-3.3-4.37-8.83-6.79-13.71-8.92-1.37-0.6-2.79-1.22-3.54-1.64l-0.37-0.2c-1.42-0.79-2.85-1.59-4.27-2.4a92 92 0 0 0 15.63 1.48 58.89 58.89 0 0 0 27.67-6.63 174.19 174.19 0 0 0 16-9.73 160.08 160.08 0 0 1 14-8.6c11.79-6.14 25.58-9.25 41-9.25 3.13 0 6.34 0.13 9.55 0.4a144.68 144.68 0 0 1 27.58 5.13 72.91 72.91 0 0 1 7.88 2.93c1.28 0.53 2.61 1.08 4 1.62 0.09 0 10.2 3.47 15.21 3.47a10.27 10.27 0 0 0 7.37-2.85 9.53 9.53 0 0 0 2.66-9c-0.74-3.27-1.23-5.42-19.39-16.67-6.26-3.87-18-10.8-26.4-13.63-12.67-4.28-26.35-8.73-39.94-12.06 6.26-1.22 13.12-2.19 20.88-3 5.15-0.51 10.49-0.77 15.87-0.77 17.81 0 37.05 2.84 57.21 8.45 2.61 0.73 5.21 1.58 8 2.49a131.32 131.32 0 0 0 14 4 43 43 0 0 0 8.71 1c10.65 0 14.13-5.37 15.26-8.58 3.13-8.92-5.4-15.76-8.2-18-12.51-10-28-17.35-48.53-22.8M554 173.38c29.78 17.61 57.13 35.92 78 64.14 1.91 2.58 7.52 10.61 2.55 12.22a1.84 1.84 0 0 1-0.57 0.08c-2 0-5.26-2.65-6.63-3.61a79.81 79.81 0 0 1-8.4-6.62c-10.16-9.32-19.06-20-29.94-28.57-15.15-11.91-33.53-19.16-52.3-23.51a340.48 340.48 0 0 0-62.15-8.08c-7.6-0.31-15.52-0.85-23.39-0.85a93.8 93.8 0 0 0-23.22 2.42c-8.76 2.24-11.69 6.56-1.43 9.65 8.73 2.63 18.4 3.21 27.32 5.32 18.27 4.31 36.45 10.72 51.26 22.6 9 7.19 5.14 9.67-1.11 9.67a33.71 33.71 0 0 1-6.75-0.76c-7.31-1.54-14.22-4.38-21.4-6.37-19.4-5.39-39.58-8.8-59.76-8.8-5.61 0-11.22 0.26-16.81 0.82a193.51 193.51 0 0 0-36 6.57c-6.47 1.93-16 4.4-20.74 9.52a2.84 2.84 0 0 0 1.78 0.47c23 0.75 50.26 9.59 72 16.92 13.08 4.42 40.45 22.6 39.55 23.48a1.17 1.17 0 0 1-0.74 0.16c-2.6 0-10.67-2.4-11.77-2.83-4.22-1.64-8.23-3.56-12.72-4.83a153.74 153.74 0 0 0-29.4-5.46q-5.15-0.42-10.33-0.43c-15.68 0-31.37 3-45.37 10.32-10.39 5.41-19.57 12.94-30 18.31a49.34 49.34 0 0 1-23.31 5.57c-7.53 0-15.16-1.4-23.22-3.21-1.94-0.44-13-4.32-18.65-4.32-2.95 0-4.41 1.06-2.3 4.24 6.71 10.1 18.22 16.45 28.54 22.22 3.74 2.09 11.7 4.55 14.29 8 4.17 5.52-6.27 6.57-14.52 6.57-3.83 0-7.19-0.23-8.39-0.33a80.83 80.83 0 0 1-64.62-42.91c-1.68-3.18-8.6-17.27-13-17.27-1.38 0-2.52 1.37-3.18 4.87-4.76 25.19 12 77.77 7.26 81.79a0.27 0.27 0 0 1-0.18 0.06c-3.16 0-25.34-42.73-29.12-46.83-4.61 33.31 0.44 67.45 10.86 99.28 2.72 8.32 31.8 78.3 22.44 80.53a6.42 6.42 0 0 1-1.5 0.17c-11.82 0-28-30.57-32.91-38-6.13-9.24-9.51-18.93-18.66-26-3.73 3.83-4 9.77-3.77 15.11A215.18 215.18 0 0 0 188 560.35c6.83 8.57 23.6 20.23 21.41 32.51a0.87 0.87 0 0 1-1 0.77c-4.69 0-24.49-19.15-25.52-20.33-2.14-2.47-17.11-19.85-24.29-19.85a3.17 3.17 0 0 0-3 2 5 5 0 0 0-0.2 3.65 292.17 292.17 0 0 0 38.13 79.34c16.95 24.86 39.75 42.26 58.92 64.44a99.1 99.1 0 0 1-14.45 1.03 75.34 75.34 0 0 1-16-1.61 46.24 46.24 0 0 0-9.75-1.47h-1.08c-14.34 0.75 7.09 21.56 10.33 24.68 15.1 14.54 32.08 27.35 49.35 39.19q11.58 7.95 23.62 15.2c7.17 4.32 14.71 7 17.75 15.6 0.08 0.24-1.83 0.33-4.64 0.33-7 0-19.47-0.55-20.84-0.83 10.94 16.88 33.25 27.81 52.34 32a96.5 96.5 0 0 0 20.67 2.23 98.23 98.23 0 0 0 23-2.73c12.44-3 22.52-9.77 31-19.47 5.14-5.91 7.69-11.94 0.81-14.62a5.47 5.47 0 0 0-2-0.39c-3.25 0-5.89 3-8.61 4.55a21 21 0 0 1-10.62 3.05h-0.92c-4.81-0.22-9.45-1.86-13.84-3.83-24.33-10.9-46.5-32.07-62.41-53.2-16.32-21.59-27.16-47.25-29.63-74.23-0.75-8.19-0.71-16.73 2.58-24.26 4.43-10.12 13.64-14.09 24.07-14.91 1.44-0.11 2.9-0.18 4.35-0.18a28.21 28.21 0 0 1 12.5 2.5c11.94 5.85 19 22.64 24.87 33.93 6.34 12.23 12 24.81 17.54 37.41 4.51 10.25 8.72 20.69 13.71 30.71 0.31 0.63 4.13 8.41 5.87 8.41 0.3 0 0.54-0.24 0.69-0.78 2.09-7.74-2-16.57-4.46-23.67-3.18-9.07-6.3-18.17-9.16-27.35-15.18-48.62-14.19-99.87-6.91-149.79 2-13.88 8.39-30.37 22.67-30.37a24.25 24.25 0 0 1 8.85 1.85c9.11 3.58 16.36 12.63 24.52 17.54 0.88-4.39 1.57-9.17 6.07-12a10 10 0 0 1 5.29-1.59 8.34 8.34 0 0 1 2.25 0.31c5.28 1.48 7.42 7.25 10.3 11.77s8.79 9.31 12.8 9.31c2.7 0 4.52-2.21 3.9-8.26a23 23 0 0 1 1.58-11.94 13.29 13.29 0 0 1 8.85-7.63 10.89 10.89 0 0 1 2.33-0.25 14 14 0 0 1 8.57 3.18 23.29 23.29 0 0 1 6.63 9.46c1.56 3.77 5.64 30.06 13.12 30.06 1.33 0 2.77-0.83 4.32-2.77a11.84 11.84 0 0 0 2.38-5.51 50.24 50.24 0 0 0-0.51-18.69c-1.12-5.11-3-10-3.73-15.22a5 5 0 0 1 0.27-3 3.45 3.45 0 0 1 3.12-1.63 4.4 4.4 0 0 1 0.92 0.1 10.63 10.63 0 0 1 4 2.21q14.47 11 28 23.11c3.41 3.06 9.52 11.23 13.24 11.23 1.67 0 2.86-1.65 3.1-6.17 0.69-13.06-11.22-26-14.56-38.22a9.94 9.94 0 0 1-0.35-5.26 7.17 7.17 0 0 1 5.49-4.7 10.48 10.48 0 0 1 2.23-0.23 17.6 17.6 0 0 1 5.24 0.93c10.73 3.39 19 12.37 23.9 22.51 5.13 10.64 6.24 21.91 8.38 33.33 1 5.44 2.41 11.53 6.68 11.53 1.39 0 3.08-0.64 5.17-2.16 15.9-11.59 26.26-34.14 25.38-53.62-0.22-4.93-1.08-9.81-1.49-14.72a2.15 2.15 0 0 1 0.35-1.7 1.08 1.08 0 0 1 0.81-0.34 3.33 3.33 0 0 1 2.06 1.09c11.75 11.86 12.32 30.63 24.31 42.16 4-7.73 2.12-17.09-0.21-25.48S653.4 483.28 656 475c0.58-1.89 1.64-3.88 3.53-4.46a2.87 2.87 0 0 1 0.85-0.13c8.13 0 21.15 32.45 28.85 37.07 1.86-11.92-2.55-25.5-4.46-37.3-0.57-3.5-0.82-7.86 3-9.34a5.62 5.62 0 0 1 2.06-0.38 6.76 6.76 0 0 1 2.85 0.66c16.55 7.77 16.72 24.56 27.25 35.39 0.58 0 1.12-11.71 1.09-12.59-0.21-6.86-0.48-13.64-0.08-20.5 0.22-3.87 1.09-8.52 5.65-9.07a6.48 6.48 0 0 1 0.79 0 7.46 7.46 0 0 1 3.13 0.72c9.22 4.3 15.76 11.43 20.26 20.27 3.82 7.52 4.89 17.77 9.71 24.39 6.29-3.27 6.83-10.82 6.43-17.06-0.2-3.21-2.66-19.26-6.89-19.88 11.26 1.65 19.43 11.46 25.23 21.25 4.9 8.27 9 17.19 10.5 26.68s0.27 19.66-4.84 27.81c-3.51 5.6-8.78 10-12.06 15.7-1.29 2.25-4.1 10.91-0.41 10.91a6.32 6.32 0 0 0 3.06-1.16c14.92-9.2 36.82-26.13 41.56-45.9 4.81-20.09-3-24-6.84-27.89 13.95 6.32 21.54 23.18 20.44 35.71-1.39 15.87-25.57 31-18.15 31h0.25c16.55-0.67 30.23-19.35 31.93-35.61 1.31-12.61-1.38-25.67-5.4-37.7-1.16-3.47-0.85-4.9 0.33-4.9 3 0 11.5 9.19 15.78 17.86 8 16.15-1.58 42.28-4.21 54.73 8.73-10.16 19-21.26 25.35-46.31 5-19.73 0.86-33.65-3.57-42.27-5.69-11.08-11.67-16.29-20.81-24.76-6.78-6.29-16.66-9.53-22.31-17.05-7-9.36 0.81-21.82 3.9-31.75a154.75 154.75 0 0 0 5.89-62.6c-1.15-10.49-3.68-20-6.93-30-1.15-3.56-7.18-15.12-9-21.29a2.06 2.06 0 0 0-2-1.46 2 2 0 0 0-1.83 1.15c-3.19 6.72-0.83 21.47-0.41 30 0.57 11.48-1 55.26-10 57.7-7.06-0.33-4.49-43.56-9.06-63.93-3.06-13.66-8.19-27.2-16.52-38.55-3.87-5.27-14.76-19-22.85-19a6.33 6.33 0 0 0-2 0.3 4.4 4.4 0 0 0 0.51 2.43c10.36 21.81 10.81 46.89 10 71-0.16 4.85-0.49 14.15-5.94 15.45-4-8.67-5.4-18.91-8.09-28.08a206.36 206.36 0 0 0-28.17-58.93c-11.15-16.16-25.67-35.52-43.87-43.94a26.24 26.24 0 0 0-9.87-2.55c-2.29 0-4.33 0.64-5.45 2.47-2.33 3.83 2 9.33 3.85 12.42a233.37 233.37 0 0 1 17 34.35c1.92 4.86 1.27 9.86-2.37 9.86a8.31 8.31 0 0 1-4.36-1.66c-6.57-4.33-9.78-14.56-14.24-20.83a124.56 124.56 0 0 0-38.68-35.39c-24.68-14.53-53.36-19.9-81.36-24.68z" fill="" p-id="3080"></path><path d="M395.4 598.84a4.22 4.22 0 0 1-3.47-6.63c17.27-25 43.61-44.93 68.73-52.1 25.52-7.29 53.21-3.52 74.05 10.08a4.22 4.22 0 1 1-4.62 7.08c-18.83-12.28-43.92-15.66-67.12-9s-47.9 25.35-64.11 48.78a4.22 4.22 0 0 1-3.46 1.79zM772.14 542.5a4.21 4.21 0 0 1-2.78-1c-11.17-9.77-20.89-17.36-32-22.67-12.56-6-25.54-7.9-36.57-5.36-12.35 2.85-22.68 12-25.68 22.71a4.22 4.22 0 1 1-8.13-2.28c3.88-13.83 16.4-25.08 31.92-28.66 16.51-3.8 32 1.15 42.1 6 12.69 6.06 23.81 15.08 33.93 23.93a4.22 4.22 0 0 1-2.78 7.4zM617.69 709.56a5.26 5.26 0 0 1-0.55-10.5 31.37 31.37 0 0 0 19.69-10c6.49-7.18 11.69-21.15 4.58-28.72-3.57-3.8-10.58-4.81-20.85-3a5.26 5.26 0 1 1-1.83-10.37c14.18-2.5 24.11-0.48 30.34 6.16 12.09 12.88 4.68 32.89-4.44 43a42 42 0 0 1-26.38 13.44 5.25 5.25 0 0 1-0.56-0.01z" fill="" p-id="3081"></path><path d="M517.91 752.17a33.88 33.88 0 0 0-1 4.5c-2.91 20.49 12.36 43.12 28.5 54.33 27.54 19.1 66.18 12.76 88.36-11.7 13.13-14.48 23.12-38.88 15.61-58.1-4.25-10.88-12.76-16.13-23.65-18.67-31.73-7.4-96.1-11.35-107.82 29.64z" fill="#7C4949" p-id="3082"></path><path d="M581.91 826.85a68.56 68.56 0 0 1-39.21-12c-17.59-12.2-33.7-36.35-30.46-58.9a38.67 38.67 0 0 1 1.09-5.13c5.64-19.72 23-32.29 50.28-36.36 27.51-4.1 55.32 1.55 63.19 3.38 13.75 3.2 22.58 10.25 27 21.57 8.4 21.52-2.67 47.76-16.52 63a75.07 75.07 0 0 1-55.37 24.44z m-59.44-73.38a29.22 29.22 0 0 0-0.82 3.87c-2.67 18.54 11.65 39.46 26.46 49.74 24.85 17.23 60.92 12.41 82.13-11 12.32-13.59 21.33-36.22 14.7-53.18-3.28-8.4-9.54-13.26-20.3-15.77-30.64-7.13-91.53-10.82-102.17 26.34z" fill="" p-id="3083"></path><path d="M526.81 782.61s21.32-14.81 49-10.82 47 19.24 51.73 27.56c-22.22 18.75-33.54 22.28-61.21 16.15-26.58-6.5-39.52-32.89-39.52-32.89z" fill="#E26A6A" p-id="3084"></path><path d="M522.24 753.48s18.91 1.62 61.78-0.25 54.91-9.58 59.73-12.36c-2.41-5.87-9.87-13.87-36.92-17-10.81-1.27-28.35-2.42-41.67-0.06-13.5 2.39-22.5 4.06-32 12.56-9.34 8.27-10.92 17.11-10.92 17.11z" fill="#FFFFFF" p-id="3085"></path><path d="M430.850593 635.600226a63.94 47.25 86.66 1 0 94.339481-5.505663 63.94 47.25 86.66 1 0-94.339481 5.505663Z" fill="#FFFFFF" p-id="3086"></path><path d="M706.722817 655.897443a42.26 59.22 1.48 1 0 3.059069-118.400489 42.26 59.22 1.48 1 0-3.059069 118.400489Z" fill="#FFFFFF" p-id="3087"></path><path d="M453.24 630.58c1.26 21.65 8.8 38.83 26 37.82s22.72-18.94 21.46-40.59-12.91-38.59-26-37.82-22.7 18.94-21.46 40.59z" fill="#050505" p-id="3088"></path><path d="M461.092953 620.46725a26.24 13.22 86.66 1 0 26.395089-1.54042 26.24 13.22 86.66 1 0-26.395089 1.54042Z" fill="#FCFAFA" p-id="3089"></path><path d="M690.41 594.82c0.41 20 4.95 36.18 19.83 35.87 13.31-0.27 18.76-16.63 18.35-36.65s-9.29-36.04-19.83-35.87-18.76 16.62-18.35 36.65z" fill="" p-id="3090"></path><path d="M697.028788 581.656536a20.21 10.47 89.12 1 0 20.937531-0.321603 20.21 10.47 89.12 1 0-20.937531 0.321603Z" fill="#FCFAFA" p-id="3091"></path><path d="M434.55 609.61a4.22 4.22 0 0 1-4.06-5.4c0.43-1.46 10.8-35.89 40.33-39.19s48.06 28.24 48.83 29.58a4.22 4.22 0 1 1-7.32 4.22c-0.16-0.28-16.61-28.1-40.58-25.41s-33.07 32.86-33.16 33.17a4.23 4.23 0 0 1-4.04 3.03zM745.12 571.1a4.22 4.22 0 0 1-4-2.83c-0.08-0.23-8.54-23.4-29.22-26.42-20.36-3-36.18 25.11-36.34 25.4a4.22 4.22 0 0 1-7.39-4.09c0.76-1.37 18.81-33.48 45-29.67 25.79 3.77 35.57 30.83 36 32a4.23 4.23 0 0 1-4 5.62z" fill="#050505" p-id="3092"></path><path d="M372.19 771.46a5.24 5.24 0 0 1-3.19-1.08c-22.08-16.87-34.55-33.56-40.45-54.11-4-13.92-6.08-28.94-7.73-43.1a5.26 5.26 0 0 1 10.45-1.17c1.61 13.72 3.61 28.23 7.4 41.42 5.23 18.23 16.55 33.24 36.72 48.65a5.26 5.26 0 0 1-3.2 9.44z" fill="" p-id="3093"></path></svg>